<?xml version="1.0" encoding="UTF-8" standalone="no"?>
<!-- Created with Inkscape (http://www.inkscape.org/) -->

<svg
   xmlns:dc="http://purl.org/dc/elements/1.1/"
   xmlns:cc="http://creativecommons.org/ns#"
   xmlns:rdf="http://www.w3.org/1999/02/22-rdf-syntax-ns#"
   xmlns:svg="http://www.w3.org/2000/svg"
   xmlns="http://www.w3.org/2000/svg"
   xmlns:sodipodi="http://sodipodi.sourceforge.net/DTD/sodipodi-0.dtd"
   xmlns:inkscape="http://www.inkscape.org/namespaces/inkscape"
   width="257.44473"
   height="147.81488"
   id="svg2"
   version="1.1"
   inkscape:version="0.48.5 r10040"
   sodipodi:docname="print-anweisung.svg">
  <sodipodi:namedview
     id="base"
     pagecolor="#ffffff"
     bordercolor="#666666"
     borderopacity="1.0"
     inkscape:pageopacity="0.0"
     inkscape:pageshadow="2"
     inkscape:zoom="2.8"
     inkscape:cx="123.47215"
     inkscape:cy="80.701997"
     inkscape:document-units="px"
     inkscape:current-layer="layer1"
     showgrid="false"
     inkscape:window-width="1440"
     inkscape:window-height="847"
     inkscape:window-x="0"
     inkscape:window-y="25"
     inkscape:window-maximized="1"
     fit-margin-top="5"
     fit-margin-left="5"
     fit-margin-right="5"
     fit-margin-bottom="5" />
  <defs
     id="defs4">
    <marker
       inkscape:stockid="Arrow2Mend"
       orient="auto"
       refY="0"
       refX="0"
       id="Arrow2Mend"
       style="overflow:visible">
      <path
         id="path3835"
         style="fill-rule:evenodd;stroke-width:0.625;stroke-linejoin:round"
         d="M 8.7185878,4.0337352 -2.2072895,0.01601326 8.7185884,-4.0017078 c -1.7454984,2.3720609 -1.7354408,5.6174519 -6e-7,8.035443 z"
         transform="scale(-0.6,-0.6)"
         inkscape:connector-curvature="0" />
    </marker>
    <marker
       inkscape:stockid="Arrow2Mendy"
       orient="auto"
       refY="0"
       refX="0"
       id="Arrow2Mendy"
       style="overflow:visible">
      <path
         id="path4253"
         style="fill:#ff0000;fill-rule:evenodd;stroke:#ff0000;stroke-width:0.625;stroke-linejoin:round"
         d="M 8.7185878,4.0337352 -2.2072895,0.01601326 8.7185884,-4.0017078 c -1.7454984,2.3720609 -1.7354408,5.6174519 -6e-7,8.035443 z"
         transform="scale(-0.6,-0.6)"
         inkscape:connector-curvature="0" />
    </marker>
    <marker
       inkscape:stockid="Arrow2Mendy"
       orient="auto"
       refY="0"
       refX="0"
       id="Arrow2Mendy-3"
       style="overflow:visible">
      <path
         id="path4253-0"
         style="fill:#ff0000;fill-rule:evenodd;stroke:#ff0000;stroke-width:0.625;stroke-linejoin:round"
         d="M 8.7185878,4.0337352 -2.2072895,0.01601326 8.7185884,-4.0017078 c -1.7454984,2.3720609 -1.7354408,5.6174519 -6e-7,8.035443 z"
         transform="scale(-0.6,-0.6)"
         inkscape:connector-curvature="0" />
    </marker>
    <marker
       inkscape:stockid="Arrow2Mendy8"
       orient="auto"
       refY="0"
       refX="0"
       id="Arrow2Mendy8"
       style="overflow:visible">
      <path
         id="path4361"
         style="fill:#d45500;fill-rule:evenodd;stroke:#d45500;stroke-width:0.625;stroke-linejoin:round"
         d="M 8.7185878,4.0337352 -2.2072895,0.01601326 8.7185884,-4.0017078 c -1.7454984,2.3720609 -1.7354408,5.6174519 -6e-7,8.035443 z"
         transform="scale(-0.6,-0.6)"
         inkscape:connector-curvature="0" />
    </marker>
  </defs>
  <metadata
     id="metadata7">
    <rdf:RDF>
      <cc:Work
         rdf:about="">
        <dc:format>image/svg+xml</dc:format>
        <dc:type
           rdf:resource="http://purl.org/dc/dcmitype/StillImage" />
        <dc:title />
      </cc:Work>
    </rdf:RDF>
  </metadata>
  <g
     inkscape:label="Layer 1"
     inkscape:groupmode="layer"
     id="layer1"
     transform="translate(-200.63835,-390.15138)">
    <g
       id="g4420"
       transform="matrix(2.2714732,0,0,2.2714732,-418.77333,-590.03836)">
      <rect
         style="fill:#e6e6e6;fill-opacity:1;stroke:#999999;stroke-opacity:1"
         id="rect4324"
         width="91.671341"
         height="13.889592"
         x="275.39282"
         y="451.32141" />
      <text
         sodipodi:linespacing="125%"
         id="text2985"
         y="461.64789"
         x="277.14285"
         style="font-size:12.5px;font-style:normal;font-variant:normal;font-weight:normal;font-stretch:normal;text-align:start;line-height:125%;letter-spacing:0px;word-spacing:0px;writing-mode:lr-tb;text-anchor:start;fill:#000000;fill-opacity:1;stroke:none;font-family:Inconsolata;-inkscape-font-specification:Inconsolata"
         xml:space="preserve"><tspan
           id="tspan2989"
           y="461.64789"
           x="277.14285"
           sodipodi:role="line"><tspan
             id="tspan3020"
             style="fill:#d45500">print(</tspan><tspan
             id="tspan3030"
             style="fill:#008000"> 2</tspan><tspan
             id="tspan3028"
             style="fill:#ff0000"> +</tspan><tspan
             id="tspan3032"
             style="fill:#008000"> 3</tspan><tspan
             id="tspan3026"
             style="fill:#aa4400"> )</tspan></tspan></text>
      <g
         inkscape:transform-center-x="9.1182096"
         transform="matrix(0,1,-3.0088601,0,2022.1984,237.41828)"
         id="text2993"
         style="font-size:12.5px;font-style:normal;font-variant:normal;font-weight:normal;font-stretch:normal;text-align:start;line-height:125%;letter-spacing:0px;word-spacing:0px;writing-mode:lr-tb;text-anchor:start;fill:#0000ff;fill-opacity:1;stroke:none;font-family:Garamond;-inkscape-font-specification:Garamond">
        <path
           style="fill:#0000ff"
           inkscape:connector-curvature="0"
           id="path2998"
           d="m 229.65175,554.6109 0,-0.21362 c 0.67545,0.0895 1.2268,0.36418 1.65405,0.82397 0.42724,0.45574 0.64087,0.9603 0.64087,1.51367 0,0.30112 -0.0468,0.64495 -0.14038,1.0315 -0.0936,0.38249 -0.14038,0.6897 -0.14038,0.92163 0,0.28077 0.12207,0.54932 0.36621,0.80566 0.24821,0.25229 0.59,0.40691 1.02539,0.46387 l 0,0.25024 c -0.43539,0.057 -0.77718,0.2116 -1.02539,0.46387 -0.24414,0.25228 -0.36621,0.52287 -0.36621,0.81177 0,0.22787 0.0468,0.53508 0.14038,0.92163 0.0936,0.38249 0.14038,0.72428 0.14038,1.02539 0,0.54932 -0.21363,1.05387 -0.64087,1.51367 -0.42318,0.4598 -0.97453,0.73649 -1.65405,0.83008 l 0,-0.21362 c 0.47607,-0.11801 0.82397,-0.30518 1.0437,-0.56153 0.22379,-0.25634 0.33569,-0.53507 0.33569,-0.83618 0,-0.25228 -0.0468,-0.57576 -0.14038,-0.97046 -0.0936,-0.39062 -0.14038,-0.72224 -0.14038,-0.99487 0,-0.41504 0.15055,-0.81583 0.45166,-1.20239 0.30517,-0.38656 0.75683,-0.68563 1.35498,-0.89722 -0.58594,-0.21565 -1.03353,-0.52083 -1.34277,-0.91553 -0.30925,-0.39469 -0.46387,-0.79752 -0.46387,-1.20849 0,-0.27669 0.0468,-0.61035 0.14038,-1.00098 0.0936,-0.39469 0.14038,-0.71817 0.14038,-0.97046 0,-0.29703 -0.1119,-0.57372 -0.33569,-0.83008 -0.21973,-0.2604 -0.56763,-0.44758 -1.0437,-0.56152" />
      </g>
      <text
         sodipodi:linespacing="125%"
         id="text3000"
         y="480.21674"
         x="321.22849"
         style="font-size:10px;font-style:normal;font-variant:normal;font-weight:normal;font-stretch:normal;text-align:start;line-height:125%;letter-spacing:0px;word-spacing:0px;writing-mode:lr-tb;text-anchor:start;fill:#0000ff;fill-opacity:1;stroke:none;font-family:Arial;-inkscape-font-specification:Arial"
         xml:space="preserve"><tspan
           style="font-size:10px;font-style:normal;font-variant:normal;font-weight:normal;font-stretch:normal;text-align:start;line-height:125%;writing-mode:lr-tb;text-anchor:start;font-family:Arial;-inkscape-font-specification:Arial"
           y="480.21674"
           x="321.22849"
           id="tspan3002"
           sodipodi:role="line">Ausdruck</tspan></text>
      <g
         style="font-size:12.5px;font-style:normal;font-variant:normal;font-weight:normal;font-stretch:normal;text-align:start;line-height:125%;letter-spacing:0px;word-spacing:0px;writing-mode:lr-tb;text-anchor:start;fill:#008000;fill-opacity:1;stroke:none;font-family:Garamond;-inkscape-font-specification:Garamond"
         id="g3004"
         transform="matrix(0,-1,1.066592,0,-273.41945,676.3236)"
         inkscape:transform-center-x="-3.2322704">
        <path
           d="m 229.65175,554.6109 0,-0.21362 c 0.67545,0.0895 1.2268,0.36418 1.65405,0.82397 0.42724,0.45574 0.64087,0.9603 0.64087,1.51367 0,0.30112 -0.0468,0.64495 -0.14038,1.0315 -0.0936,0.38249 -0.14038,0.6897 -0.14038,0.92163 0,0.28077 0.12207,0.54932 0.36621,0.80566 0.24821,0.25229 0.59,0.40691 1.02539,0.46387 l 0,0.25024 c -0.43539,0.057 -0.77718,0.2116 -1.02539,0.46387 -0.24414,0.25228 -0.36621,0.52287 -0.36621,0.81177 0,0.22787 0.0468,0.53508 0.14038,0.92163 0.0936,0.38249 0.14038,0.72428 0.14038,1.02539 0,0.54932 -0.21363,1.05387 -0.64087,1.51367 -0.42318,0.4598 -0.97453,0.73649 -1.65405,0.83008 l 0,-0.21362 c 0.47607,-0.11801 0.82397,-0.30518 1.0437,-0.56153 0.22379,-0.25634 0.33569,-0.53507 0.33569,-0.83618 0,-0.25228 -0.0468,-0.57576 -0.14038,-0.97046 -0.0936,-0.39062 -0.14038,-0.72224 -0.14038,-0.99487 0,-0.41504 0.15055,-0.81583 0.45166,-1.20239 0.30517,-0.38656 0.75683,-0.68563 1.35498,-0.89722 -0.58594,-0.21565 -1.03353,-0.52083 -1.34277,-0.91553 -0.30925,-0.39469 -0.46387,-0.79752 -0.46387,-1.20849 0,-0.27669 0.0468,-0.61035 0.14038,-1.00098 0.0936,-0.39469 0.14038,-0.71817 0.14038,-0.97046 0,-0.29703 -0.1119,-0.57372 -0.33569,-0.83008 -0.21973,-0.2604 -0.56763,-0.44758 -1.0437,-0.56152"
           id="path3006"
           inkscape:connector-curvature="0"
           style="fill:#008000" />
      </g>
      <text
         sodipodi:linespacing="125%"
         id="text3008"
         y="441.13425"
         x="313.02103"
         style="font-size:10px;font-style:normal;font-variant:normal;font-weight:normal;font-stretch:normal;text-align:start;line-height:125%;letter-spacing:0px;word-spacing:0px;writing-mode:lr-tb;text-anchor:start;fill:#008000;fill-opacity:1;stroke:none;font-family:Arial;-inkscape-font-specification:Arial"
         xml:space="preserve"><tspan
           y="441.13425"
           x="313.02103"
           id="tspan3010"
           sodipodi:role="line">Literal</tspan></text>
      <text
         sodipodi:linespacing="125%"
         id="text3012"
         y="441.00797"
         x="344.20947"
         style="font-size:10px;font-style:normal;font-variant:normal;font-weight:normal;font-stretch:normal;text-align:start;line-height:125%;letter-spacing:0px;word-spacing:0px;writing-mode:lr-tb;text-anchor:start;fill:#800000;fill-opacity:1;stroke:none;font-family:Arial;-inkscape-font-specification:Arial"
         xml:space="preserve"><tspan
           style="font-size:10px;font-style:normal;font-variant:normal;font-weight:normal;font-stretch:normal;text-align:start;line-height:125%;writing-mode:lr-tb;text-anchor:start;fill:#ff0000;font-family:Arial;-inkscape-font-specification:Arial"
           y="441.00797"
           x="344.20947"
           id="tspan3014"
           sodipodi:role="line">Operator</tspan></text>
      <text
         xml:space="preserve"
         style="font-size:10px;font-style:normal;font-variant:normal;font-weight:normal;font-stretch:normal;text-align:start;line-height:125%;letter-spacing:0px;word-spacing:0px;writing-mode:lr-tb;text-anchor:start;fill:#d45500;fill-opacity:1;stroke:none;font-family:Arial;-inkscape-font-specification:Arial"
         x="276.52927"
         y="494.27765"
         id="text3016"
         sodipodi:linespacing="125%"><tspan
           sodipodi:role="line"
           id="tspan3018"
           x="276.52927"
           y="494.27765">Funktionsaufruf</tspan></text>
      <path
         inkscape:connector-curvature="0"
         id="path3034"
         d="m 357.46773,442.35631 -13.8896,9.09137"
         style="fill:#ff0000;stroke:#ff0000;stroke-width:1px;stroke-linecap:butt;stroke-linejoin:miter;stroke-opacity:1;marker-end:url(#Arrow2Mendy)"
         sodipodi:nodetypes="cc" />
      <path
         style="color:#000000;fill:#d45500;fill-opacity:1;fill-rule:nonzero;stroke:#d45500;stroke-width:1px;stroke-linecap:butt;stroke-linejoin:miter;stroke-miterlimit:4;stroke-opacity:1;stroke-dasharray:none;stroke-dashoffset:0;marker:none;marker-end:url(#Arrow2Mendy8);visibility:visible;display:inline;overflow:visible;enable-background:accumulate"
         d="m 300.35714,485.21932 0,-16.42857"
         id="path4326"
         inkscape:connector-curvature="0" />
    </g>
  </g>
</svg>
