<?xml version="1.0" encoding="UTF-8" standalone="no"?>
<!-- Created with Inkscape (http://www.inkscape.org/) -->

<svg
   xmlns:dc="http://purl.org/dc/elements/1.1/"
   xmlns:cc="http://creativecommons.org/ns#"
   xmlns:rdf="http://www.w3.org/1999/02/22-rdf-syntax-ns#"
   xmlns:svg="http://www.w3.org/2000/svg"
   xmlns="http://www.w3.org/2000/svg"
   xmlns:sodipodi="http://sodipodi.sourceforge.net/DTD/sodipodi-0.dtd"
   xmlns:inkscape="http://www.inkscape.org/namespaces/inkscape"
   width="539.66785"
   height="361.20456"
   id="svg2"
   version="1.1"
   inkscape:version="0.48.3.1 r9886"
   sodipodi:docname="re-uebersicht.svg">
  <defs
     id="defs4">
    <marker
       inkscape:stockid="Arrow2Lend"
       orient="auto"
       refY="0"
       refX="0"
       id="Arrow2Lend"
       style="overflow:visible">
      <path
         id="path3882"
         style="fill-rule:evenodd;stroke-width:0.625;stroke-linejoin:round"
         d="M 8.7185878,4.0337352 -2.2072895,0.01601326 8.7185884,-4.0017078 c -1.7454984,2.3720609 -1.7354408,5.6174519 -6e-7,8.035443 z"
         transform="matrix(-1.1,0,0,-1.1,-1.1,0)"
         inkscape:connector-curvature="0" />
    </marker>
    <marker
       inkscape:stockid="Arrow2Mend"
       orient="auto"
       refY="0"
       refX="0"
       id="Arrow2Mend"
       style="overflow:visible">
      <path
         id="path3888"
         style="fill-rule:evenodd;stroke-width:0.625;stroke-linejoin:round"
         d="M 8.7185878,4.0337352 -2.2072895,0.01601326 8.7185884,-4.0017078 c -1.7454984,2.3720609 -1.7354408,5.6174519 -6e-7,8.035443 z"
         transform="scale(-0.6,-0.6)"
         inkscape:connector-curvature="0" />
    </marker>
    <marker
       inkscape:stockid="Arrow2Lend"
       orient="auto"
       refY="0"
       refX="0"
       id="Arrow2Lend-1"
       style="overflow:visible">
      <path
         inkscape:connector-curvature="0"
         id="path3882-2"
         style="fill-rule:evenodd;stroke-width:0.625;stroke-linejoin:round"
         d="M 8.7185878,4.0337352 -2.2072895,0.01601326 8.7185884,-4.0017078 c -1.7454984,2.3720609 -1.7354408,5.6174519 -6e-7,8.035443 z"
         transform="matrix(-1.1,0,0,-1.1,-1.1,0)" />
    </marker>
  </defs>
  <sodipodi:namedview
     id="base"
     pagecolor="#ffffff"
     bordercolor="#666666"
     borderopacity="1.0"
     inkscape:pageopacity="0.0"
     inkscape:pageshadow="2"
     inkscape:zoom="1.4"
     inkscape:cx="188.5964"
     inkscape:cy="169.23196"
     inkscape:document-units="px"
     inkscape:current-layer="layer1"
     showgrid="false"
     inkscape:window-width="1871"
     inkscape:window-height="1176"
     inkscape:window-x="1729"
     inkscape:window-y="24"
     inkscape:window-maximized="1"
     fit-margin-top="0"
     fit-margin-left="0"
     fit-margin-right="0"
     fit-margin-bottom="0" />
  <metadata
     id="metadata7">
    <rdf:RDF>
      <cc:Work
         rdf:about="">
        <dc:format>image/svg+xml</dc:format>
        <dc:type
           rdf:resource="http://purl.org/dc/dcmitype/StillImage" />
        <dc:title></dc:title>
      </cc:Work>
    </rdf:RDF>
  </metadata>
  <g
     inkscape:label="Ebene 1"
     inkscape:groupmode="layer"
     id="layer1"
     transform="translate(-31.046459,-219.50504)">
    <text
       xml:space="preserve"
       style="font-size:12px;font-style:normal;font-variant:normal;font-weight:normal;font-stretch:normal;text-align:start;line-height:125%;letter-spacing:0px;word-spacing:0px;writing-mode:lr-tb;text-anchor:start;fill:#000000;fill-opacity:1;stroke:none;font-family:Liberation Mono;-inkscape-font-specification:Liberation Mono"
       x="30.582031"
       y="258.21933"
       id="text2985"
       sodipodi:linespacing="125%"><tspan
         sodipodi:role="line"
         x="30.582031"
         y="258.21933"
         id="tspan2989">re.compile(…)</tspan></text>
    <text
       xml:space="preserve"
       style="font-size:12px;font-style:normal;font-variant:normal;font-weight:normal;font-stretch:normal;text-align:start;line-height:125%;letter-spacing:0px;word-spacing:0px;writing-mode:lr-tb;text-anchor:start;fill:#000000;fill-opacity:1;stroke:none;font-family:Liberation Mono;-inkscape-font-specification:Liberation Mono"
       x="30.582031"
       y="422.83838"
       id="text2993"
       sodipodi:linespacing="125%"><tspan
         sodipodi:role="line"
         id="tspan2995"
         x="30.582031"
         y="422.83838">re.match(…)</tspan><tspan
         sodipodi:role="line"
         x="30.582031"
         y="437.83838"
         id="tspan2997" /></text>
    <text
       xml:space="preserve"
       style="font-size:12px;font-style:normal;font-variant:normal;font-weight:normal;font-stretch:normal;text-align:start;line-height:125%;letter-spacing:0px;word-spacing:0px;writing-mode:lr-tb;text-anchor:start;fill:#000000;fill-opacity:1;stroke:none;font-family:Liberation Mono;-inkscape-font-specification:Liberation Mono"
       x="30.582031"
       y="537.65588"
       id="text2999"
       sodipodi:linespacing="125%"><tspan
         sodipodi:role="line"
         id="tspan3001"
         x="30.582031"
         y="537.65588">re.split(…)</tspan></text>
    <text
       xml:space="preserve"
       style="font-size:12px;font-style:normal;font-variant:normal;font-weight:normal;font-stretch:normal;text-align:start;line-height:125%;letter-spacing:0px;word-spacing:0px;writing-mode:lr-tb;text-anchor:start;fill:#000000;fill-opacity:1;stroke:none;font-family:Liberation Mono;-inkscape-font-specification:Liberation Mono"
       x="30.582031"
       y="496.52887"
       id="text3003"
       sodipodi:linespacing="125%"><tspan
         sodipodi:role="line"
         id="tspan3005"
         x="30.582031"
         y="496.52887">re.findall(…)</tspan></text>
    <text
       xml:space="preserve"
       style="font-size:12px;font-style:normal;font-variant:normal;font-weight:normal;font-stretch:normal;text-align:start;line-height:125%;letter-spacing:0px;word-spacing:0px;writing-mode:lr-tb;text-anchor:start;fill:#000000;fill-opacity:1;stroke:none;font-family:Liberation Mono;-inkscape-font-specification:Liberation Mono"
       x="30.582031"
       y="463.96536"
       id="text3007"
       sodipodi:linespacing="125%"><tspan
         sodipodi:role="line"
         id="tspan3009"
         x="30.582031"
         y="463.96536">re.finditer(…)</tspan></text>
    <text
       xml:space="preserve"
       style="font-size:12px;font-style:normal;font-variant:normal;font-weight:normal;font-stretch:normal;text-align:start;line-height:125%;letter-spacing:0px;word-spacing:0px;writing-mode:lr-tb;text-anchor:start;fill:#000000;fill-opacity:1;stroke:none;font-family:Liberation Mono;-inkscape-font-specification:Liberation Mono"
       x="30.582031"
       y="515.09235"
       id="text3011"
       sodipodi:linespacing="125%"><tspan
         sodipodi:role="line"
         id="tspan3013"
         x="30.582031"
         y="515.09235">re.sub(…)</tspan></text>
    <text
       xml:space="preserve"
       style="font-size:12px;font-style:normal;font-variant:normal;font-weight:normal;font-stretch:normal;text-align:start;line-height:125%;letter-spacing:0px;word-spacing:0px;writing-mode:lr-tb;text-anchor:start;fill:#000000;fill-opacity:1;stroke:none;font-family:Liberation Mono;-inkscape-font-specification:Liberation Mono"
       x="30.582031"
       y="578.21936"
       id="text3015"
       sodipodi:linespacing="125%"><tspan
         sodipodi:role="line"
         id="tspan3017"
         x="30.582031"
         y="578.21936">re.escape(…)</tspan></text>
    <text
       xml:space="preserve"
       style="font-size:14px;font-style:normal;font-variant:normal;font-weight:bold;font-stretch:normal;text-align:center;line-height:125%;letter-spacing:0px;word-spacing:0px;writing-mode:lr-tb;text-anchor:middle;fill:#000000;fill-opacity:1;stroke:none;font-family:Liberation Sans;-inkscape-font-specification:Liberation Sans Bold"
       x="59.285717"
       y="233.07646"
       id="text3055"
       sodipodi:linespacing="125%"><tspan
         sodipodi:role="line"
         id="tspan3057"
         x="59.285717"
         y="233.07646">Modul re</tspan></text>
    <g
       id="g3069"
       transform="translate(0,13.571429)">
      <rect
         ry="0.5"
         rx="0.49999997"
         y="205.93361"
         x="207.14285"
         height="183.57143"
         width="138.57143"
         id="rect3067"
         style="color:#000000;fill:#f9f9f9;stroke:none;stroke-width:1.25;marker:none;visibility:visible;display:inline;overflow:visible;enable-background:accumulate" />
      <text
         sodipodi:linespacing="125%"
         id="text3019"
         y="259.50504"
         x="214.54172"
         style="font-size:12px;font-style:normal;font-variant:normal;font-weight:normal;font-stretch:normal;text-align:start;line-height:125%;letter-spacing:0px;word-spacing:0px;writing-mode:lr-tb;text-anchor:start;fill:#000000;fill-opacity:1;stroke:none;font-family:Liberation Mono;-inkscape-font-specification:Liberation Mono"
         xml:space="preserve"><tspan
           y="259.50504"
           x="214.54172"
           id="tspan3021"
           sodipodi:role="line">regex.search(…)</tspan></text>
      <text
         sodipodi:linespacing="125%"
         id="text3023"
         y="278.50504"
         x="214.54172"
         style="font-size:12px;font-style:normal;font-variant:normal;font-weight:normal;font-stretch:normal;text-align:start;line-height:125%;letter-spacing:0px;word-spacing:0px;writing-mode:lr-tb;text-anchor:start;fill:#000000;fill-opacity:1;stroke:none;font-family:Liberation Mono;-inkscape-font-specification:Liberation Mono"
         xml:space="preserve"><tspan
           y="278.50504"
           x="214.54172"
           id="tspan3025"
           sodipodi:role="line">regex.match(…)</tspan></text>
      <text
         sodipodi:linespacing="125%"
         id="text3027"
         y="379.64792"
         x="214.54172"
         style="font-size:12px;font-style:normal;font-variant:normal;font-weight:normal;font-stretch:normal;text-align:start;line-height:125%;letter-spacing:0px;word-spacing:0px;writing-mode:lr-tb;text-anchor:start;fill:#000000;fill-opacity:1;stroke:none;font-family:Liberation Mono;-inkscape-font-specification:Liberation Mono"
         xml:space="preserve"><tspan
           y="379.64792"
           x="214.54172"
           id="tspan3029"
           sodipodi:role="line">regex.split(…)</tspan></text>
      <text
         sodipodi:linespacing="125%"
         id="text3031"
         y="335.79077"
         x="214.54172"
         style="font-size:12px;font-style:normal;font-variant:normal;font-weight:normal;font-stretch:normal;text-align:start;line-height:125%;letter-spacing:0px;word-spacing:0px;writing-mode:lr-tb;text-anchor:start;fill:#000000;fill-opacity:1;stroke:none;font-family:Liberation Mono;-inkscape-font-specification:Liberation Mono"
         xml:space="preserve"><tspan
           y="335.79077"
           x="214.54172"
           sodipodi:role="line"
           id="tspan4493">regex.findall(…)</tspan></text>
      <text
         sodipodi:linespacing="125%"
         id="text3035"
         y="297.64789"
         x="214.54172"
         style="font-size:12px;font-style:normal;font-variant:normal;font-weight:normal;font-stretch:normal;text-align:start;line-height:125%;letter-spacing:0px;word-spacing:0px;writing-mode:lr-tb;text-anchor:start;fill:#000000;fill-opacity:1;stroke:none;font-family:Liberation Mono;-inkscape-font-specification:Liberation Mono"
         xml:space="preserve"><tspan
           y="297.64789"
           x="214.54172"
           id="tspan3037"
           sodipodi:role="line">regex.finditer(…)</tspan><tspan
           id="tspan3039"
           y="312.64789"
           x="214.54172"
           sodipodi:role="line" /></text>
      <text
         sodipodi:linespacing="125%"
         id="text3041"
         y="358.07648"
         x="214.54172"
         style="font-size:12px;font-style:normal;font-variant:normal;font-weight:normal;font-stretch:normal;text-align:start;line-height:125%;letter-spacing:0px;word-spacing:0px;writing-mode:lr-tb;text-anchor:start;fill:#000000;fill-opacity:1;stroke:none;font-family:Liberation Mono;-inkscape-font-specification:Liberation Mono"
         xml:space="preserve"><tspan
           y="358.07648"
           x="214.54172"
           id="tspan3043"
           sodipodi:role="line">regex.sub(…)</tspan></text>
      <text
         sodipodi:linespacing="125%"
         id="text3059"
         y="228.07646"
         x="257.85715"
         style="font-size:14px;font-style:normal;font-variant:normal;font-weight:bold;font-stretch:normal;text-align:center;line-height:125%;letter-spacing:0px;word-spacing:0px;writing-mode:lr-tb;text-anchor:middle;fill:#000000;fill-opacity:1;stroke:none;font-family:Liberation Sans;-inkscape-font-specification:Liberation Sans Bold"
         xml:space="preserve"><tspan
           y="228.07646"
           x="257.85715"
           id="tspan3061"
           sodipodi:role="line">regex-Objekt</tspan></text>
    </g>
    <g
       id="g4547"
       transform="translate(10,20)">
      <rect
         ry="0.5"
         rx="0.49999997"
         y="199.93361"
         x="440"
         height="117.85714"
         width="120.71429"
         id="rect4497"
         style="color:#000000;fill:#f9f9f9;fill-opacity:1;fill-rule:nonzero;stroke:none;stroke-width:1.25;marker:none;visibility:visible;display:inline;overflow:visible;enable-background:accumulate" />
      <text
         sodipodi:linespacing="125%"
         id="text3045"
         y="258.50507"
         x="445"
         style="font-size:12px;font-style:normal;font-variant:normal;font-weight:normal;font-stretch:normal;text-align:start;line-height:125%;letter-spacing:0px;word-spacing:0px;writing-mode:lr-tb;text-anchor:start;fill:#000000;fill-opacity:1;stroke:none;font-family:Liberation Mono;-inkscape-font-specification:Liberation Mono"
         xml:space="preserve"><tspan
           y="258.50507"
           x="445"
           id="tspan3047"
           sodipodi:role="line">match.group(…)</tspan><tspan
           id="tspan3049"
           y="273.50507"
           x="445"
           sodipodi:role="line">match.groups(…)</tspan><tspan
           id="tspan3051"
           y="288.50507"
           x="445"
           sodipodi:role="line">match.span</tspan><tspan
           id="tspan3053"
           y="303.50507"
           x="445"
           sodipodi:role="line">match.string</tspan></text>
      <text
         sodipodi:linespacing="125%"
         id="text3063"
         y="217.07646"
         x="495"
         style="font-size:14px;font-style:normal;font-variant:normal;font-weight:bold;font-stretch:normal;text-align:center;line-height:125%;letter-spacing:0px;word-spacing:0px;writing-mode:lr-tb;text-anchor:middle;fill:#000000;fill-opacity:1;stroke:none;font-family:Liberation Sans;-inkscape-font-specification:Liberation Sans Bold"
         xml:space="preserve"><tspan
           y="217.07646"
           x="495"
           id="tspan3065"
           sodipodi:role="line">Match-Objekte</tspan></text>
    </g>
    <path
       style="fill:none;stroke:#000000;stroke-width:1px;stroke-linecap:butt;stroke-linejoin:miter;stroke-opacity:1;marker-end:url(#Arrow2Lend)"
       d="m 127.14286,255.21932 74.28571,0"
       id="path4301"
       inkscape:connector-curvature="0" />
    <g
       style="font-size:64.10806274px;font-style:normal;font-variant:normal;font-weight:normal;font-stretch:condensed;text-align:center;line-height:125%;letter-spacing:0px;word-spacing:0px;writing-mode:lr-tb;text-anchor:middle;fill:#4d4d4d;fill-opacity:1;stroke:none;font-family:Liberation Sans Narrow;-inkscape-font-specification:Liberation Sans Narrow Condensed"
       id="text4516">
      <path
         d="m 348.48587,313.10009 c 1.56514,-1e-5 2.6816,-0.57389 3.3494,-1.72165 0.68865,-1.12691 1.03298,-2.79639 1.03299,-5.00844 l 0,-11.17509 c -1e-5,-1.06428 0.11477,-2.03467 0.34433,-2.91116 0.22954,-0.87646 0.56344,-1.6486 1.00169,-2.3164 0.43823,-0.68865 0.95994,-1.26253 1.56513,-1.72165 0.62605,-0.4591 1.30428,-0.79299 2.03468,-1.00169 l 0,-0.0626 c -0.70954,-0.20867 -1.36689,-0.54256 -1.97207,-1.00169 -0.6052,-0.45909 -1.13734,-1.02254 -1.59644,-1.69035 -0.43825,-0.66777 -0.78258,-1.4399 -1.03299,-2.3164 -0.22956,-0.87646 -0.34434,-1.83641 -0.34433,-2.87986 l 0,-11.14378 c -1e-5,-2.25376 -0.34434,-3.93367 -1.03299,-5.03974 -0.6678,-1.12686 -1.78426,-1.69031 -3.3494,-1.69035 l -1.53383,0 0,-4.03806 3.38069,0 c 2.23293,5e-5 3.92328,0.79305 5.07105,2.37901 1.14776,1.58605 1.72164,3.85028 1.72165,6.7927 l 0,11.3316 c -10e-6,1.29387 0.11477,2.3999 0.34433,3.31809 0.25041,0.91824 0.61561,1.66951 1.0956,2.2538 0.47996,0.58434 1.06428,1.02258 1.75296,1.31472 0.68864,0.29218 1.48164,0.45912 2.37901,0.50084 l 0,3.97545 c -0.89737,0.0418 -1.69037,0.2087 -2.37901,0.50085 -0.68868,0.29217 -1.273,0.73041 -1.75296,1.31471 -0.47999,0.58433 -0.84519,1.3356 -1.0956,2.2538 -0.22956,0.91823 -0.34434,2.03469 -0.34433,3.3494 l 0,11.3003 c -10e-6,1.41905 -0.14609,2.69203 -0.43823,3.81893 -0.29217,1.1269 -0.71998,2.08685 -1.28342,2.87986 -0.56346,0.79299 -1.27299,1.39818 -2.12859,1.81556 -0.85561,0.43823 -1.83643,0.65734 -2.94246,0.65736 l -3.38069,0 0,-4.03806 1.53383,0"
         id="path4521"
         inkscape:connector-curvature="0" />
    </g>
    <path
       style="fill:none;stroke:#000000;stroke-width:1px;stroke-linecap:butt;stroke-linejoin:miter;stroke-opacity:1;marker-end:url(#Arrow2Lend)"
       d="m 366.72885,287.37979 74.28571,0"
       id="path4301-0"
       inkscape:connector-curvature="0" />
    <g
       transform="translate(-212.68183,150.67394)"
       style="font-size:64.10806274px;font-style:normal;font-variant:normal;font-weight:normal;font-stretch:condensed;text-align:center;line-height:125%;letter-spacing:0px;word-spacing:0px;writing-mode:lr-tb;text-anchor:middle;fill:#4d4d4d;fill-opacity:1;stroke:none;font-family:Liberation Sans Narrow;-inkscape-font-specification:Liberation Sans Narrow Condensed"
       id="text4516-0">
      <path
         inkscape:connector-curvature="0"
         d="m 348.48587,313.10009 c 1.56514,-1e-5 2.6816,-0.57389 3.3494,-1.72165 0.68865,-1.12691 1.03298,-2.79639 1.03299,-5.00844 l 0,-11.17509 c -1e-5,-1.06428 0.11477,-2.03467 0.34433,-2.91116 0.22954,-0.87646 0.56344,-1.6486 1.00169,-2.3164 0.43823,-0.68865 0.95994,-1.26253 1.56513,-1.72165 0.62605,-0.4591 1.30428,-0.79299 2.03468,-1.00169 l 0,-0.0626 c -0.70954,-0.20867 -1.36689,-0.54256 -1.97207,-1.00169 -0.6052,-0.45909 -1.13734,-1.02254 -1.59644,-1.69035 -0.43825,-0.66777 -0.78258,-1.4399 -1.03299,-2.3164 -0.22956,-0.87646 -0.34434,-1.83641 -0.34433,-2.87986 l 0,-11.14378 c -1e-5,-2.25376 -0.34434,-3.93367 -1.03299,-5.03974 -0.6678,-1.12686 -1.78426,-1.69031 -3.3494,-1.69035 l -1.53383,0 0,-4.03806 3.38069,0 c 2.23293,5e-5 3.92328,0.79305 5.07105,2.37901 1.14776,1.58605 1.72164,3.85028 1.72165,6.7927 l 0,11.3316 c -10e-6,1.29387 0.11477,2.3999 0.34433,3.31809 0.25041,0.91824 0.61561,1.66951 1.0956,2.2538 0.47996,0.58434 1.06428,1.02258 1.75296,1.31472 0.68864,0.29218 1.48164,0.45912 2.37901,0.50084 l 0,3.97545 c -0.89737,0.0418 -1.69037,0.2087 -2.37901,0.50085 -0.68868,0.29217 -1.273,0.73041 -1.75296,1.31471 -0.47999,0.58433 -0.84519,1.3356 -1.0956,2.2538 -0.22956,0.91823 -0.34434,2.03469 -0.34433,3.3494 l 0,11.3003 c -10e-6,1.41905 -0.14609,2.69203 -0.43823,3.81893 -0.29217,1.1269 -0.71998,2.08685 -1.28342,2.87986 -0.56346,0.79299 -1.27299,1.39818 -2.12859,1.81556 -0.85561,0.43823 -1.83643,0.65734 -2.94246,0.65736 l -3.38069,0 0,-4.03806 1.53383,0"
         id="path4521-7" />
    </g>
    <text
       sodipodi:linespacing="125%"
       id="text4578"
       y="443.40186"
       x="30.582031"
       style="font-size:12px;font-style:normal;font-variant:normal;font-weight:normal;font-stretch:normal;text-align:start;line-height:125%;letter-spacing:0px;word-spacing:0px;writing-mode:lr-tb;text-anchor:start;fill:#000000;fill-opacity:1;stroke:none;font-family:Liberation Mono;-inkscape-font-specification:Liberation Mono"
       xml:space="preserve"><tspan
         y="443.40186"
         x="30.582031"
         sodipodi:role="line"
         id="tspan4584">re.search(…)</tspan><tspan
         id="tspan4582"
         y="458.40186"
         x="30.582031"
         sodipodi:role="line" /></text>
    <path
       inkscape:connector-curvature="0"
       id="path4588"
       d="m 157.44314,439.52265 c 156.11444,-0.33687 237.96068,-34.73912 288.57142,-86.42857"
       style="fill:none;stroke:#000000;stroke-width:1px;stroke-linecap:butt;stroke-linejoin:miter;stroke-opacity:1;marker-end:url(#Arrow2Lend)"
       sodipodi:nodetypes="cc" />
  </g>
</svg>
